<svg width="40" height="40" viewBox="0 0 40 40" fill="none" xmlns="http://www.w3.org/2000/svg">
<path d="M6.66635 23.3333L9.29075 33.8309C9.36456 34.1262 9.40147 34.2738 9.44512 34.4027C9.87162 35.6618 11.0055 36.5472 12.3305 36.6555C12.4662 36.6666 12.6183 36.6666 12.9227 36.6666C13.3037 36.6666 13.4943 36.6666 13.6548 36.6511C15.2413 36.4972 16.4969 35.2416 16.6508 33.6551C16.6663 33.4946 16.6663 33.304 16.6663 32.923V9.16664M30.833 22.5C34.0547 22.5 36.6663 19.8883 36.6663 16.6666C36.6663 13.445 34.0547 10.8333 30.833 10.8333M17.083 9.16664H10.833C6.69087 9.16664 3.33301 12.5245 3.33301 16.6666C3.33301 20.8088 6.69087 24.1666 10.833 24.1666H17.083C20.0271 24.1666 23.6284 25.7448 26.4068 27.2594C28.0277 28.143 28.8382 28.5848 29.369 28.5198C29.8612 28.4595 30.2334 28.2385 30.5219 27.8352C30.833 27.4002 30.833 26.53 30.833 24.7895V8.54378C30.833 6.8033 30.833 5.93306 30.5219 5.49812C30.2334 5.09481 29.8612 4.87381 29.369 4.81352C28.8382 4.74851 28.0277 5.19031 26.4068 6.0739C23.6284 7.5885 20.027 9.16664 17.083 9.16664Z" stroke="#38CAB5" stroke-width="1.5" stroke-linecap="round" stroke-linejoin="round"/>
</svg>
