<svg width="40" height="40" viewBox="0 0 40 40" fill="none" xmlns="http://www.w3.org/2000/svg">
<g id="vuesax/linear/data">
<g id="data">
<path id="Vector" d="M33.3333 23.3333C35.1743 23.3333 36.6667 21.8409 36.6667 20C36.6667 18.159 35.1743 16.6667 33.3333 16.6667C31.4924 16.6667 30 18.159 30 20C30 21.8409 31.4924 23.3333 33.3333 23.3333Z" stroke="#38CAB5" stroke-width="1.5" stroke-linecap="round" stroke-linejoin="round"/>
<path id="Vector_2" d="M33.3333 10C35.1743 10 36.6667 8.50762 36.6667 6.66667C36.6667 4.82572 35.1743 3.33334 33.3333 3.33334C31.4924 3.33334 30 4.82572 30 6.66667C30 8.50762 31.4924 10 33.3333 10Z" stroke="#38CAB5" stroke-width="1.5" stroke-linecap="round" stroke-linejoin="round"/>
<path id="Vector_3" d="M33.3333 36.6667C35.1743 36.6667 36.6667 35.1743 36.6667 33.3333C36.6667 31.4924 35.1743 30 33.3333 30C31.4924 30 30 31.4924 30 33.3333C30 35.1743 31.4924 36.6667 33.3333 36.6667Z" stroke="#38CAB5" stroke-width="1.5" stroke-linecap="round" stroke-linejoin="round"/>
<path id="Vector_4" d="M6.66634 23.3333C8.50729 23.3333 9.99967 21.8409 9.99967 20C9.99967 18.159 8.50729 16.6667 6.66634 16.6667C4.82539 16.6667 3.33301 18.159 3.33301 20C3.33301 21.8409 4.82539 23.3333 6.66634 23.3333Z" stroke="#38CAB5" stroke-width="1.5" stroke-linecap="round" stroke-linejoin="round"/>
<path id="Vector_5" d="M10 20H30" stroke="#38CAB5" stroke-width="1.5" stroke-linecap="round" stroke-linejoin="round"/>
<path id="Vector_6" d="M29.9997 6.66666H23.333C19.9997 6.66666 18.333 8.33333 18.333 11.6667V28.3333C18.333 31.6667 19.9997 33.3333 23.333 33.3333H29.9997" stroke="#38CAB5" stroke-width="1.5" stroke-linecap="round" stroke-linejoin="round"/>
</g>
</g>
</svg>
