<svg width="381" height="256" viewBox="0 0 381 256" fill="none" xmlns="http://www.w3.org/2000/svg">
<path fill-rule="evenodd" clip-rule="evenodd" d="M380.679 -266.475L380.679 255.497L0.000636917 251.045L0.000614101 -270.926L380.679 -266.475ZM379.999 -265.667L379.999 -202.052L326.976 -202.672L326.976 -266.287L379.999 -265.667ZM379.999 -200.421L379.999 -136.805L326.976 -137.425L326.976 -201.041L379.999 -200.421ZM379.999 -71.5589L379.999 -135.174L326.976 -135.794L326.976 -72.1789L379.999 -71.5589ZM379.999 -69.9277L379.999 -6.31241L326.976 -6.93247L326.976 -70.5478L379.999 -69.9277ZM379.999 58.934L379.999 -4.68124L326.976 -5.30131L326.976 58.314L379.999 58.934ZM379.999 60.5652L379.999 124.18L326.976 123.56L326.976 59.9451L379.999 60.5652ZM379.999 189.427L379.999 125.812L326.976 125.192L326.976 188.807L379.999 189.427ZM379.999 191.058L379.999 254.673L326.976 254.053L326.976 190.438L379.999 191.058ZM325.616 -202.688L325.616 -266.303L272.593 -266.923L272.593 -203.308L325.616 -202.688ZM325.616 -201.057L325.616 -137.441L272.593 -138.061L272.593 -201.677L325.616 -201.057ZM325.616 -72.1948L325.616 -135.81L272.593 -136.43L272.593 -72.8149L325.616 -72.1948ZM325.616 -70.5637L325.616 -6.94837L272.593 -7.56843L272.593 -71.1837L325.616 -70.5637ZM325.616 58.2981L325.616 -5.3172L272.593 -5.93727L272.593 57.678L325.616 58.2981ZM325.616 59.9292L325.616 123.545L272.593 122.924L272.593 59.3092L325.616 59.9292ZM325.616 188.791L325.616 125.176L272.593 124.556L272.593 188.171L325.616 188.791ZM325.616 190.422L325.616 254.037L272.593 253.417L272.593 189.802L325.616 190.422ZM271.234 -203.324L271.234 -266.939L218.211 -267.559L218.211 -203.944L271.234 -203.324ZM271.234 -201.693L271.234 -138.077L218.211 -138.697L218.211 -202.313L271.234 -201.693ZM271.234 -72.8308L271.234 -136.446L218.211 -137.066L218.211 -73.4508L271.234 -72.8308ZM271.234 -71.1996L271.234 -7.58433L218.211 -8.20439L218.211 -71.8197L271.234 -71.1996ZM271.234 57.6621L271.234 -5.95316L218.211 -6.57323L218.211 57.0421L271.234 57.6621ZM271.234 59.2933L271.234 122.909L218.211 122.288L218.211 58.6732L271.234 59.2933ZM271.234 188.155L271.234 124.54L218.211 123.92L218.211 187.535L271.234 188.155ZM271.234 189.786L271.234 253.401L218.211 252.781L218.211 189.166L271.234 189.786ZM216.851 -203.96L216.851 -267.575L163.828 -268.195L163.828 -204.58L216.851 -203.96ZM216.851 -202.328L216.851 -138.713L163.828 -139.333L163.828 -202.949L216.851 -202.328ZM216.851 -73.4667L216.851 -137.082L163.828 -137.702L163.828 -74.0868L216.851 -73.4667ZM216.851 -71.8356L216.851 -8.22029L163.828 -8.84035L163.828 -72.4556L216.851 -71.8356ZM216.851 57.0262L216.851 -6.58913L163.828 -7.20919L163.828 56.4061L216.851 57.0262ZM216.851 58.6573L216.851 122.273L163.828 121.653L163.828 58.0372L216.851 58.6573ZM216.851 187.519L216.851 123.904L163.828 123.284L163.828 186.899L216.851 187.519ZM216.851 189.15L216.851 252.765L163.828 252.145L163.828 188.53L216.851 189.15ZM162.469 -204.596L162.469 -268.211L109.446 -268.831L109.446 -205.216L162.469 -204.596ZM162.469 -202.964L162.469 -139.349L109.446 -139.969L109.446 -203.584L162.469 -202.964ZM162.469 -74.1027L162.469 -137.718L109.446 -138.338L109.446 -74.7228L162.469 -74.1027ZM162.469 -72.4715L162.469 -8.85625L109.446 -9.47631L109.446 -73.0916L162.469 -72.4715ZM162.469 56.3902L162.469 -7.22509L109.446 -7.84515L109.446 55.7701L162.469 56.3902ZM162.469 58.0213L162.469 121.637L109.446 121.017L109.446 57.4013L162.469 58.0213ZM162.469 186.883L162.469 123.268L109.446 122.648L109.446 186.263L162.469 186.883ZM162.469 188.514L162.469 252.13L109.446 251.509L109.446 187.894L162.469 188.514ZM108.086 -205.232L108.086 -268.847L55.063 -269.467L55.063 -205.852L108.086 -205.232ZM108.086 -203.6L108.086 -139.985L55.063 -140.605L55.063 -204.22L108.086 -203.6ZM108.086 -74.7387L108.086 -138.354L55.063 -138.974L55.063 -75.3587L108.086 -74.7387ZM108.086 -73.1075L108.086 -9.49221L55.063 -10.1123L55.063 -73.7276L108.086 -73.1075ZM108.086 55.7542L108.086 -7.86105L55.063 -8.48111L55.063 55.1342L108.086 55.7542ZM108.086 57.3854L108.086 121.001L55.063 120.381L55.063 56.7653L108.086 57.3854ZM108.086 186.247L108.086 122.632L55.063 122.012L55.063 185.627L108.086 186.247ZM108.086 187.878L108.086 251.494L55.063 250.873L55.063 187.258L108.086 187.878ZM53.7034 -205.868L53.7034 -269.483L0.680377 -270.103L0.68038 -206.488L53.7034 -205.868ZM53.7034 -204.236L53.7034 -140.621L0.680383 -141.241L0.68038 -204.856L53.7034 -204.236ZM53.7034 -75.3746L53.7034 -138.99L0.680383 -139.61L0.680386 -75.9947L53.7034 -75.3746ZM53.7034 -73.7435L53.7034 -10.1282L0.680389 -10.7482L0.680386 -74.3635L53.7034 -73.7435ZM53.7034 55.1183L53.7034 -8.49701L0.680389 -9.11707L0.680391 54.4982L53.7034 55.1183ZM53.7034 56.7494L53.7034 120.365L0.680394 119.745L0.680392 56.1294L53.7034 56.7494ZM53.7034 185.611L53.7034 121.996L0.680394 121.376L0.680397 184.991L53.7034 185.611ZM53.7034 187.242L53.7034 250.858L0.6804 250.238L0.680397 186.622L53.7034 187.242Z" fill="url(#paint0_linear_936_7540)" fill-opacity="0.14"/>
<defs>
<linearGradient id="paint0_linear_936_7540" x1="471.179" y1="-119.755" x2="7.07141" y2="-68.2113" gradientUnits="userSpaceOnUse">
<stop stop-color="white" stop-opacity="0"/>
<stop offset="1" stop-color="#34CAB4"/>
</linearGradient>
</defs>
</svg>
