<svg width="40" height="40" viewBox="0 0 40 40" fill="none" xmlns="http://www.w3.org/2000/svg">
<path d="M29.9998 11.9333C29.8998 11.9167 29.7831 11.9167 29.6831 11.9333C27.3831 11.85 25.5498 9.96667 25.5498 7.63334C25.5498 5.25 27.4665 3.33333 29.8498 3.33333C32.2331 3.33333 34.1498 5.26667 34.1498 7.63334C34.1331 9.96667 32.2998 11.85 29.9998 11.9333Z" stroke="#38CAB5" stroke-width="1.5" stroke-linecap="round" stroke-linejoin="round"/>
<path d="M28.2834 24.0667C30.5667 24.45 33.0834 24.05 34.8501 22.8667C37.2001 21.3 37.2001 18.7333 34.8501 17.1667C33.0667 15.9833 30.5167 15.5833 28.2334 15.9833" stroke="#38CAB5" stroke-width="1.5" stroke-linecap="round" stroke-linejoin="round"/>
<path d="M9.95078 11.9333C10.0508 11.9167 10.1674 11.9167 10.2674 11.9333C12.5674 11.85 14.4008 9.96667 14.4008 7.63334C14.4008 5.25 12.4841 3.33333 10.1008 3.33333C7.71745 3.33333 5.80078 5.26667 5.80078 7.63334C5.81745 9.96667 7.65078 11.85 9.95078 11.9333Z" stroke="#38CAB5" stroke-width="1.5" stroke-linecap="round" stroke-linejoin="round"/>
<path d="M11.6671 24.0667C9.38372 24.45 6.86706 24.05 5.10039 22.8667C2.75039 21.3 2.75039 18.7333 5.10039 17.1667C6.88372 15.9833 9.43372 15.5833 11.7171 15.9833" stroke="#38CAB5" stroke-width="1.5" stroke-linecap="round" stroke-linejoin="round"/>
<path d="M19.9998 24.3833C19.8998 24.3667 19.7831 24.3667 19.6831 24.3833C17.3831 24.3 15.5498 22.4167 15.5498 20.0833C15.5498 17.7 17.4665 15.7833 19.8498 15.7833C22.2331 15.7833 24.1498 17.7167 24.1498 20.0833C24.1331 22.4167 22.2998 24.3167 19.9998 24.3833Z" stroke="#38CAB5" stroke-width="1.5" stroke-linecap="round" stroke-linejoin="round"/>
<path d="M15.1502 29.6333C12.8002 31.2 12.8002 33.7667 15.1502 35.3333C17.8169 37.1167 22.1835 37.1167 24.8502 35.3333C27.2002 33.7667 27.2002 31.2 24.8502 29.6333C22.2002 27.8667 17.8169 27.8667 15.1502 29.6333Z" stroke="#38CAB5" stroke-width="1.5" stroke-linecap="round" stroke-linejoin="round"/>
</svg>
