<svg width="56" height="56" viewBox="0 0 56 56" fill="none" xmlns="http://www.w3.org/2000/svg">
<g id="Frame">
<g id="Group">
<path id="Vector" d="M24.3985 14.5332C25.4602 14.1657 25.4602 13.5124 24.3985 13.104L18.6411 10.899C17.6202 10.5315 16.4361 9.34736 16.0277 8.28569L13.8227 2.52818C13.4552 1.46652 12.8019 1.46652 12.3936 2.52818L10.1886 8.28569C9.82106 9.30652 8.6369 10.4907 7.57523 10.899L1.81773 13.104C0.756068 13.4715 0.756068 14.1249 1.81773 14.5332L7.57523 16.7382C8.59607 17.1057 9.78023 18.2899 10.1886 19.3515L12.3936 25.1089C12.7611 26.1706 13.4144 26.1706 13.8227 25.1089L16.0277 19.3515C16.3952 18.3307 17.5794 17.1465 18.6411 16.7382L24.3985 14.5332Z" fill="#2EC7B1"/>
<path id="Vector_2" d="M52.4509 34.705C55.7175 33.8883 55.7175 32.5408 52.4509 31.7242L45.2234 29.9275C41.9567 29.1108 38.6084 25.7625 37.7917 22.4959L35.995 15.2684C35.1784 12.0017 33.8309 12.0017 33.0142 15.2684L31.2175 22.4959C30.4009 25.7625 27.0525 29.1108 23.7859 29.9275L16.5584 31.7242C13.2917 32.5408 13.2917 33.8883 16.5584 34.705L23.7859 36.5017C27.0525 37.3183 30.4009 40.6667 31.2175 43.9333L33.0142 51.1608C33.8309 54.4275 35.1784 54.4275 35.995 51.1608L37.7917 43.9333C38.6084 40.6667 41.9567 37.3183 45.2234 36.5017L52.4509 34.705Z" fill="#1F2937"/>
</g>
</g>
</svg>
