<svg width="40" height="40" viewBox="0 0 40 40" fill="none" xmlns="http://www.w3.org/2000/svg">
<path opacity="0.1" fill-rule="evenodd" clip-rule="evenodd" d="M0 20C0 8.95431 8.95431 0 20 0C31.0457 0 40 8.95431 40 20C40 31.0457 31.0457 40 20 40C8.95431 40 0 31.0457 0 20Z" fill="#1F2937"/>
<path d="M28.3332 20.0001C28.3332 15.4001 24.5998 11.6667 19.9998 11.6667C15.3998 11.6667 11.6665 15.4001 11.6665 20.0001C11.6665 24.0334 14.5332 27.3917 18.3332 28.1667V22.5001H16.6665V20.0001H18.3332V17.9167C18.3332 16.3084 19.6415 15.0001 21.2498 15.0001H23.3332V17.5001H21.6665C21.2082 17.5001 20.8332 17.8751 20.8332 18.3334V20.0001H23.3332V22.5001H20.8332V28.2917C25.0415 27.8751 28.3332 24.3251 28.3332 20.0001Z" fill="#1F2937"/>
</svg>
