<svg width="30" height="38" viewBox="0 0 30 38" fill="none" xmlns="http://www.w3.org/2000/svg">
<g id="Logo Icon">
<path id="Vector" opacity="0.25" d="M15.0904 37.9647C23.1485 37.9647 29.6808 37.3845 29.6808 36.6689C29.6808 35.9532 23.1485 35.373 15.0904 35.373C7.03235 35.373 0.5 35.9532 0.5 36.6689C0.5 37.3845 7.03235 37.9647 15.0904 37.9647Z" fill="#171425"/>
<path id="Vector_2" d="M17.81 2.47128C17.5592 1.74995 17.0874 1.12413 16.4604 0.681122C15.8335 0.238113 15.0825 0 14.3124 0C13.5423 0 12.7913 0.238113 12.1644 0.681122C11.5374 1.12413 11.0656 1.74995 10.8148 2.47128L8.85975 6.87429L8.5175 7.64992L6.96094 11.1565C11.5538 10.9782 16.0143 9.58283 19.8776 7.1158L17.81 2.47128Z" fill="url(#paint0_linear_996_2316)"/>
<path id="Vector_3" d="M27.3729 24.5468L24.7662 18.2953L22.6282 13.3767C19.988 15.591 16.9269 17.259 13.6254 18.2824C10.324 19.3059 6.84908 19.664 3.40568 19.3356L2.89933 20.5432L1.23024 24.5514C1.032 24.9472 0.914999 25.378 0.886027 25.8189C0.857054 26.2598 0.916683 26.702 1.06146 27.1198C1.06146 27.1616 1.09428 27.1988 1.10835 27.236C1.10681 27.2467 1.10681 27.2577 1.10835 27.2685C1.14774 27.3589 1.19479 27.446 1.249 27.5286V27.5611L1.31933 27.6633V27.6865C1.34601 27.7274 1.37579 27.7662 1.40841 27.8026L1.4928 27.8955V27.9234C1.56313 27.993 1.63345 28.0627 1.70847 28.1277H1.7366L1.83505 28.2067C1.87533 28.2387 1.91761 28.2682 1.96164 28.2949C1.99543 28.3199 2.03153 28.3417 2.06947 28.3599L2.10229 28.3832C2.19213 28.4327 2.28445 28.4776 2.37891 28.5179H2.41642L2.53363 28.5643H2.56645L2.71179 28.6154H2.74461L2.8712 28.6479H2.91339L3.0728 28.6804L3.23221 28.7036H3.27909H3.41037H3.44787H3.61666H4.02924H4.19802H4.25428H4.39025H4.43713L4.61529 28.6711H4.66218L4.80752 28.6386H4.86378L5.04194 28.5875L5.2201 28.5318H5.27636L5.42639 28.476H5.47328L5.66081 28.3971H5.7077L5.85773 28.3274L5.9093 28.2996L6.10152 28.1974L13.0638 24.5096C13.4027 24.3308 13.7817 24.2398 14.1656 24.2449C14.5245 24.249 14.877 24.3399 15.1924 24.5096L15.3049 24.5654L22.3376 28.2392L22.5298 28.3414L22.5861 28.3692L22.7361 28.4389H22.7783L22.9705 28.5179H23.0127L23.1627 28.5736H23.219L23.4018 28.6293L23.58 28.6804H23.6363L23.7816 28.7129H23.8285L24.0066 28.7454H24.0535H24.1942H24.2458H24.4192H24.8271C24.8834 28.7454 24.9396 28.7454 24.9912 28.7454H25.0334H25.1647H25.2116L25.371 28.7222L25.5304 28.6897H25.5726L25.6992 28.6572H25.732L25.882 28.6061H25.9101L26.0274 28.5597H26.0649C26.1598 28.5204 26.2521 28.4754 26.3415 28.425C26.3542 28.42 26.3654 28.412 26.3743 28.4017C26.4128 28.3846 26.449 28.3627 26.4821 28.3367H26.5103L26.5947 28.2763L26.6322 28.2485L26.7353 28.1695H26.7634C26.8385 28.1045 26.9088 28.0348 26.9791 27.9652L27.0026 27.9373C27.0316 27.9085 27.0583 27.8774 27.0823 27.8444L27.176 27.7283V27.7051L27.2464 27.6029V27.5704C27.2979 27.4868 27.3448 27.4032 27.3917 27.3103C27.3917 27.3103 27.3917 27.3103 27.3917 27.2778C27.3917 27.2452 27.4245 27.2034 27.4433 27.1616C27.6106 26.7437 27.6906 26.2965 27.6785 25.8471C27.6664 25.3976 27.5625 24.9553 27.3729 24.5468Z" fill="url(#paint1_linear_996_2316)"/>
<path id="Vector_4" d="M22.6296 13.3763L21.6638 11.1516L19.8728 7.11084C16.0095 9.57787 11.549 10.9733 6.95617 11.1516L5.27302 15.0437L4.48537 16.8411L3.85712 18.2948L3.80555 18.4202L3.42578 19.3492C6.8671 19.6731 10.3391 19.3115 13.6371 18.2857C16.9352 17.2599 19.9927 15.5907 22.6296 13.3763Z" fill="url(#paint2_linear_996_2316)"/>
</g>
<defs>
<linearGradient id="paint0_linear_996_2316" x1="5.43251" y1="12.4988" x2="28.8604" y2="-6.83875" gradientUnits="userSpaceOnUse">
<stop stop-color="#319DA0"/>
<stop offset="1" stop-color="#25F5A8"/>
</linearGradient>
<linearGradient id="paint1_linear_996_2316" x1="4.64342" y1="1.75147" x2="23.4859" y2="49.9897" gradientUnits="userSpaceOnUse">
<stop offset="0.17" stop-color="#439A97"/>
<stop offset="0.29" stop-color="#5CAEA7"/>
<stop offset="0.47" stop-color="#7CC8BC"/>
<stop offset="0.62" stop-color="#90D8C9"/>
<stop offset="0.72" stop-color="#97DECE"/>
</linearGradient>
<linearGradient id="paint2_linear_996_2316" x1="8.84092" y1="-1.26323" x2="16.8868" y2="33.2283" gradientUnits="userSpaceOnUse">
<stop offset="0.32" stop-color="#10A19D"/>
<stop offset="0.37" stop-color="#21ABAB"/>
<stop offset="0.44" stop-color="#32B5BA"/>
<stop offset="0.53" stop-color="#3DBDC4"/>
<stop offset="0.65" stop-color="#44C1C9"/>
<stop offset="1" stop-color="#46C2CB"/>
</linearGradient>
</defs>
</svg>
