<svg width="40" height="40" viewBox="0 0 40 40" fill="none" xmlns="http://www.w3.org/2000/svg">
<path opacity="0.1" fill-rule="evenodd" clip-rule="evenodd" d="M0 20C0 8.95431 8.95431 0 20 0C31.0457 0 40 8.95431 40 20C40 31.0457 31.0457 40 20 40C8.95431 40 0 31.0457 0 20Z" fill="#1F2937"/>
<path d="M17.5332 27.9501C18.3332 28.1917 19.1415 28.3334 19.9998 28.3334C22.21 28.3334 24.3296 27.4554 25.8924 25.8926C27.4552 24.3298 28.3332 22.2102 28.3332 20.0001C28.3332 18.9057 28.1176 17.8221 27.6988 16.8111C27.28 15.8 26.6662 14.8813 25.8924 14.1075C25.1186 13.3337 24.1999 12.7199 23.1889 12.3011C22.1778 11.8823 21.0942 11.6667 19.9998 11.6667C18.9055 11.6667 17.8219 11.8823 16.8108 12.3011C15.7998 12.7199 14.8811 13.3337 14.1073 14.1075C12.5445 15.6703 11.6665 17.7899 11.6665 20.0001C11.6665 23.5417 13.8915 26.5834 17.0332 27.7834C16.9582 27.1334 16.8832 26.0584 17.0332 25.3167L17.9915 21.2001C17.9915 21.2001 17.7498 20.7167 17.7498 19.9501C17.7498 18.8001 18.4665 17.9417 19.2832 17.9417C19.9998 17.9417 20.3332 18.4667 20.3332 19.1417C20.3332 19.8584 19.8582 20.8834 19.6165 21.8667C19.4748 22.6834 20.0498 23.4001 20.8832 23.4001C22.3665 23.4001 23.5165 21.8167 23.5165 19.5834C23.5165 17.5834 22.0832 16.2167 20.0248 16.2167C17.6748 16.2167 16.2915 17.9667 16.2915 19.8084C16.2915 20.5251 16.5248 21.2501 16.9082 21.7251C16.9832 21.7751 16.9832 21.8417 16.9582 21.9667L16.7165 22.8751C16.7165 23.0167 16.6248 23.0667 16.4832 22.9667C15.4165 22.5001 14.7998 20.9834 14.7998 19.7584C14.7998 17.1251 16.6665 14.7334 20.2665 14.7334C23.1332 14.7334 25.3665 16.7917 25.3665 19.5251C25.3665 22.3917 23.5915 24.6917 21.0498 24.6917C20.2415 24.6917 19.4498 24.2584 19.1665 23.7501L18.6082 25.7251C18.4165 26.4417 17.8915 27.4001 17.5332 27.9751V27.9501Z" fill="#1F2937"/>
</svg>
