<svg width="40" height="40" viewBox="0 0 40 40" fill="none" xmlns="http://www.w3.org/2000/svg">
<path opacity="0.1" fill-rule="evenodd" clip-rule="evenodd" d="M0 20C0 8.95431 8.95431 0 20 0C31.0457 0 40 8.95431 40 20C40 31.0457 31.0457 40 20 40C8.95431 40 0 31.0457 0 20Z" fill="#1F2937"/>
<g clip-path="url(#clip0_1172_5175)">
<path fill-rule="evenodd" clip-rule="evenodd" d="M21.6668 11.6667C22.1089 11.6667 22.5328 11.8423 22.8453 12.1549C23.1579 12.4675 23.3335 12.8914 23.3335 13.3334C23.3339 13.9093 23.5329 14.4675 23.8969 14.9138C24.261 15.3601 24.7677 15.6672 25.3318 15.7834C25.765 15.8714 26.1455 16.1278 26.3896 16.4963C26.6337 16.8648 26.7215 17.3152 26.6335 17.7484C26.5455 18.1816 26.2891 18.5621 25.9206 18.8062C25.5521 19.0503 25.1017 19.138 24.6685 19.0501C24.2071 18.9562 23.7588 18.8065 23.3335 18.6042V23.3334C23.3335 24.2686 23.0711 25.1851 22.5763 25.9786C22.0815 26.7722 21.3741 27.4111 20.5344 27.8228C19.6946 28.2344 18.7563 28.4023 17.8259 28.3074C16.8956 28.2124 16.0105 27.8585 15.2712 27.2857C14.5319 26.7129 13.9681 25.9443 13.6438 25.0672C13.3195 24.19 13.2477 23.2395 13.4365 22.3235C13.6253 21.4076 14.0673 20.563 14.7121 19.8857C15.3569 19.2083 16.1788 18.7254 17.0843 18.4917C17.5097 18.3892 17.9583 18.458 18.3334 18.6833C18.7084 18.9086 18.9798 19.2724 19.089 19.6961C19.1982 20.1198 19.1364 20.5694 18.9169 20.9479C18.6975 21.3265 18.3379 21.6035 17.916 21.7192C17.5253 21.8229 17.1855 22.0649 16.9598 22.4002C16.7341 22.7355 16.6379 23.1414 16.6889 23.5424C16.7399 23.9434 16.9348 24.3122 17.2373 24.5803C17.5398 24.8484 17.9293 24.9976 18.3335 25.0001C18.7755 25.0001 19.1994 24.8245 19.512 24.5119C19.8246 24.1994 20.0002 23.7754 20.0002 23.3334V13.3334C20.0002 12.8914 20.1758 12.4675 20.4883 12.1549C20.8009 11.8423 21.2248 11.6667 21.6668 11.6667Z" fill="#1F2937"/>
</g>
<defs>
<clipPath id="clip0_1172_5175">
<rect width="20" height="20" fill="white" transform="translate(10 10)"/>
</clipPath>
</defs>
</svg>
