<svg width="40" height="40" viewBox="0 0 40 40" fill="none" xmlns="http://www.w3.org/2000/svg">
<g id="Social Icons">
<path id="BG" opacity="0.1" fill-rule="evenodd" clip-rule="evenodd" d="M0 20C0 8.95431 8.95431 0 20 0C31.0457 0 40 8.95431 40 20C40 31.0457 31.0457 40 20 40C8.95431 40 0 31.0457 0 20Z" fill="#1F2937"/>
<path id="Path" fill-rule="evenodd" clip-rule="evenodd" d="M20.2259 16.7242L20.2626 17.3298L19.6506 17.2556C17.4227 16.9714 15.4764 16.0075 13.8239 14.3886L13.016 13.5853L12.8079 14.1785C12.3672 15.5008 12.6488 16.8972 13.5668 17.8364C14.0565 18.3555 13.9463 18.4296 13.1017 18.1207C12.8079 18.0218 12.5508 17.9477 12.5264 17.9847C12.4407 18.0712 12.7345 19.1958 12.967 19.6407C13.2853 20.2586 13.9341 20.8641 14.644 21.2225L15.2438 21.5067L14.5339 21.5191C13.8484 21.5191 13.8239 21.5315 13.8973 21.791C14.1422 22.5942 15.1092 23.4469 16.1864 23.8177L16.9453 24.0772L16.2843 24.4727C15.305 25.0411 14.1544 25.3624 13.0038 25.3871C12.4529 25.3995 12 25.4489 12 25.486C12 25.6096 13.4934 26.3016 14.3625 26.5735C16.9698 27.3768 20.0667 27.0307 22.3925 25.659C24.045 24.6827 25.6976 22.7425 26.4687 20.8641C26.8849 19.8631 27.3011 18.0342 27.3011 17.1567C27.3011 16.5883 27.3378 16.5141 28.0233 15.8344C28.4273 15.439 28.8067 15.0065 28.8802 14.8829C29.0026 14.6481 28.9904 14.6481 28.3661 14.8582C27.3256 15.2289 27.1787 15.1795 27.6928 14.6234C28.0723 14.2279 28.5252 13.5112 28.5252 13.3011C28.5252 13.264 28.3416 13.3258 28.1335 13.437C27.9132 13.5606 27.4235 13.746 27.0563 13.8572L26.3953 14.0673L25.7955 13.6594C25.465 13.437 24.9998 13.1898 24.755 13.1157C24.1307 12.9427 23.1759 12.9674 22.6129 13.1651C21.0827 13.7212 20.1157 15.1548 20.2259 16.7242Z" fill="#1F2937"/>
</g>
</svg>
