<svg width="40" height="40" viewBox="0 0 40 40" fill="none" xmlns="http://www.w3.org/2000/svg">
<g id="Social Icons">
<path id="BG" opacity="0.1" fill-rule="evenodd" clip-rule="evenodd" d="M0 20C0 8.95431 8.95431 0 20 0C31.0457 0 40 8.95431 40 20C40 31.0457 31.0457 40 20 40C8.95431 40 0 31.0457 0 20Z" fill="#1F2937"/>
<path id="Path" fill-rule="evenodd" clip-rule="evenodd" d="M27.1468 13.0959C28.0073 13.3321 28.6851 14.0279 28.9151 14.9115C29.333 16.5129 29.333 19.8542 29.333 19.8542C29.333 19.8542 29.333 23.1955 28.9151 24.797C28.6851 25.6806 28.0073 26.3764 27.1468 26.6127C25.5872 27.0417 19.333 27.0417 19.333 27.0417C19.333 27.0417 13.0788 27.0417 11.5191 26.6127C10.6586 26.3764 9.98085 25.6806 9.75085 24.797C9.33301 23.1955 9.33301 19.8542 9.33301 19.8542C9.33301 19.8542 9.33301 16.5129 9.75085 14.9115C9.98085 14.0279 10.6586 13.3321 11.5191 13.0959C13.0788 12.6667 19.333 12.6667 19.333 12.6667C19.333 12.6667 25.5872 12.6667 27.1468 13.0959ZM17.458 17.0417V23.2917L22.458 20.1668L17.458 17.0417Z" fill="#1F2937"/>
</g>
</svg>
