<svg width="32" height="32" viewBox="0 0 32 32" fill="none" xmlns="http://www.w3.org/2000/svg">
<path d="M10.6658 29.3333H21.3325C26.6925 29.3333 27.6525 27.1867 27.9325 24.5733L28.9325 13.9067C29.2925 10.6533 28.3591 8 22.6658 8H9.33245C3.63912 8 2.70578 10.6533 3.06578 13.9067L4.06578 24.5733C4.34578 27.1867 5.30578 29.3333 10.6658 29.3333Z" stroke="#1F2937" stroke-width="1.5" stroke-miterlimit="10" stroke-linecap="round" stroke-linejoin="round"/>
<path d="M10.666 8V6.93333C10.666 4.57333 10.666 2.66666 14.9327 2.66666H17.066C21.3327 2.66666 21.3327 4.57333 21.3327 6.93333V8" stroke="#1F2937" stroke-width="1.5" stroke-miterlimit="10" stroke-linecap="round" stroke-linejoin="round"/>
<path d="M18.6673 17.3333V18.6667C18.6673 18.68 18.6673 18.68 18.6673 18.6933C18.6673 20.1467 18.654 21.3333 16.0007 21.3333C13.3607 21.3333 13.334 20.16 13.334 18.7067V17.3333C13.334 16 13.334 16 14.6673 16H17.334C18.6673 16 18.6673 16 18.6673 17.3333Z" stroke="#1F2937" stroke-width="1.5" stroke-miterlimit="10" stroke-linecap="round" stroke-linejoin="round"/>
<path d="M28.866 14.6667C25.786 16.9067 22.266 18.24 18.666 18.6933" stroke="#1F2937" stroke-width="1.5" stroke-miterlimit="10" stroke-linecap="round" stroke-linejoin="round"/>
<path d="M3.49414 15.0267C6.49414 17.08 9.88081 18.32 13.3341 18.7067" stroke="#1F2937" stroke-width="1.5" stroke-miterlimit="10" stroke-linecap="round" stroke-linejoin="round"/>
</svg>
