<svg width="32" height="32" viewBox="0 0 32 32" fill="none" xmlns="http://www.w3.org/2000/svg">
<g clip-path="url(#clip0_975_10792)">
<path d="M6.85686 16V9.98858C6.87472 8.80693 7.12555 7.64043 7.59501 6.5559C8.06446 5.47136 8.7433 4.49012 9.59263 3.6684C10.442 2.84667 11.4451 2.20061 12.5445 1.76723C13.644 1.33385 14.8181 1.12168 15.9997 1.14286C17.1813 1.12168 18.3555 1.33385 19.4549 1.76723C20.5544 2.20061 21.5575 2.84667 22.4068 3.6684C23.2561 4.49012 23.935 5.47136 24.4044 6.5559C24.8739 7.64043 25.1247 8.80693 25.1426 9.98858V16M20.5711 28C21.7836 28 22.9463 27.5184 23.8036 26.6611C24.6609 25.8038 25.1426 24.641 25.1426 23.4286V18.2857M20.5711 28C20.5711 28.7578 20.2701 29.4845 19.7343 30.0203C19.1985 30.5561 18.4718 30.8571 17.714 30.8571H14.2854C13.5277 30.8571 12.8009 30.5561 12.2651 30.0203C11.7293 29.4845 11.4283 28.7578 11.4283 28C11.4283 27.2422 11.7293 26.5155 12.2651 25.9797C12.8009 25.4439 13.5277 25.1429 14.2854 25.1429H17.714C18.4718 25.1429 19.1985 25.4439 19.7343 25.9797C20.2701 26.5155 20.5711 27.2422 20.5711 28ZM3.42829 12.5714H5.71401C6.01711 12.5714 6.3078 12.6918 6.52213 12.9062C6.73646 13.1205 6.85686 13.4112 6.85686 13.7143V20.5714C6.85686 20.8745 6.73646 21.1652 6.52213 21.3796C6.3078 21.5939 6.01711 21.7143 5.71401 21.7143H3.42829C2.82208 21.7143 2.2407 21.4735 1.81205 21.0448C1.38339 20.6162 1.14258 20.0348 1.14258 19.4286V14.8571C1.14258 14.2509 1.38339 13.6696 1.81205 13.2409C2.2407 12.8122 2.82208 12.5714 3.42829 12.5714ZM28.5711 21.7143H26.2854C25.9823 21.7143 25.6916 21.5939 25.4773 21.3796C25.263 21.1652 25.1426 20.8745 25.1426 20.5714V13.7143C25.1426 13.4112 25.263 13.1205 25.4773 12.9062C25.6916 12.6918 25.9823 12.5714 26.2854 12.5714H28.5711C29.1774 12.5714 29.7587 12.8122 30.1874 13.2409C30.616 13.6696 30.8569 14.2509 30.8569 14.8571V19.4286C30.8569 20.0348 30.616 20.6162 30.1874 21.0448C29.7587 21.4735 29.1774 21.7143 28.5711 21.7143Z" stroke="#1F2937" stroke-width="1.5" stroke-linecap="round" stroke-linejoin="round"/>
</g>
<defs>
<clipPath id="clip0_975_10792">
<rect width="32" height="32" fill="white"/>
</clipPath>
</defs>
</svg>
