<svg width="32" height="32" viewBox="0 0 32 32" fill="none" xmlns="http://www.w3.org/2000/svg">
<path d="M16.466 28H11.5327C5.19934 28 2.66602 25.4666 2.66602 19.1333V11.5334C2.66602 5.20003 5.19934 2.66666 11.5327 2.66666H19.1327C25.466 2.66666 27.9993 5.20003 27.9993 11.5334V16.4666" stroke="#1F2937" stroke-width="1.5" stroke-linecap="round" stroke-linejoin="round"/>
<path d="M8.96067 19.2266C10.0284 19.2266 10.894 18.361 10.894 17.2933C10.894 16.2255 10.0284 15.36 8.96067 15.36C7.89292 15.36 7.02734 16.2255 7.02734 17.2933C7.02734 18.361 7.89292 19.2266 8.96067 19.2266Z" stroke="#1F2937" stroke-width="1.5" stroke-linecap="round" stroke-linejoin="round"/>
<path d="M17.9749 16V8.45334C17.9749 6.84001 16.9616 6.62663 15.9482 6.90663L12.0949 7.95994C11.4016 8.1466 10.9082 8.70665 10.9082 9.50665V10.8533V11.76V17.2933" stroke="#1F2937" stroke-width="1.5" stroke-linecap="round" stroke-linejoin="round"/>
<path d="M16.0408 17.9333C17.1085 17.9333 17.9741 17.0678 17.9741 16C17.9741 14.9322 17.1085 14.0667 16.0408 14.0667C14.973 14.0667 14.1074 14.9322 14.1074 16C14.1074 17.0678 14.973 17.9333 16.0408 17.9333Z" stroke="#1F2937" stroke-width="1.5" stroke-linecap="round" stroke-linejoin="round"/>
<path d="M10.8945 11.7734L17.9745 9.84" stroke="#1F2937" stroke-width="1.5" stroke-linecap="round" stroke-linejoin="round"/>
<path d="M23.921 28.3734C26.2774 28.3734 28.1876 26.4631 28.1876 24.1067C28.1876 21.7503 26.2774 19.84 23.921 19.84C21.5645 19.84 19.6543 21.7503 19.6543 24.1067C19.6543 26.4631 21.5645 28.3734 23.921 28.3734Z" stroke="#1F2937" stroke-width="1.5" stroke-linecap="round" stroke-linejoin="round"/>
<path d="M28.9876 29.1733L27.6543 27.84" stroke="#1F2937" stroke-width="1.5" stroke-linecap="round" stroke-linejoin="round"/>
</svg>
