<svg width="32" height="32" viewBox="0 0 32 32" fill="none" xmlns="http://www.w3.org/2000/svg">
<g id="vuesax/linear/user-search">
<g id="user-search">
<path id="Vector" d="M16.0007 16C19.6825 16 22.6673 13.0152 22.6673 9.33332C22.6673 5.65142 19.6825 2.66666 16.0007 2.66666C12.3188 2.66666 9.33398 5.65142 9.33398 9.33332C9.33398 13.0152 12.3188 16 16.0007 16Z" stroke="#1F2937" stroke-width="1.5" stroke-linecap="round" stroke-linejoin="round"/>
<path id="Vector_2" d="M4.54688 29.3333C4.54688 24.1733 9.68024 20 16.0002 20" stroke="#1F2937" stroke-width="1.5" stroke-linecap="round" stroke-linejoin="round"/>
<g id="Group">
<path id="Vector_3" d="M24.2667 28.5334C26.6231 28.5334 28.5334 26.6231 28.5334 24.2667C28.5334 21.9103 26.6231 20 24.2667 20C21.9103 20 20 21.9103 20 24.2667C20 26.6231 21.9103 28.5334 24.2667 28.5334Z" stroke="#1F2937" stroke-width="1.5" stroke-linecap="round" stroke-linejoin="round"/>
<path id="Vector_4" d="M29.3333 29.3333L28 28" stroke="#1F2937" stroke-width="1.5" stroke-linecap="round" stroke-linejoin="round"/>
</g>
</g>
</g>
</svg>
